<svg viewBox="0 0 420 180" xmlns="http://www.w3.org/2000/svg" role="img" aria-labelledby="t d">
  <title id="t">Register bottom illustration</title>
  <desc id="d">Business tools, calculator and mobile analytics.</desc>

  <ellipse cx="210" cy="156" rx="170" ry="16" fill="#dce7f7"/>
  <path d="M40 146 C72 112,110 108,150 132 C183 110,238 108,280 134 C318 112,360 110,396 140 L396 164 L40 164 Z" fill="#e9f1fb"/>

  <g transform="translate(78 58)">
    <rect x="0" y="42" width="84" height="72" rx="9" fill="#5f90c8"/>
    <rect x="12" y="54" width="60" height="12" rx="4" fill="#dce9f8"/>
    <rect x="12" y="72" width="14" height="12" rx="3" fill="#e8f0fb"/>
    <rect x="30" y="72" width="14" height="12" rx="3" fill="#e8f0fb"/>
    <rect x="48" y="72" width="14" height="12" rx="3" fill="#e8f0fb"/>
    <rect x="12" y="88" width="14" height="12" rx="3" fill="#e8f0fb"/>
    <rect x="30" y="88" width="14" height="12" rx="3" fill="#e8f0fb"/>
    <rect x="48" y="88" width="14" height="12" rx="3" fill="#e8f0fb"/>
  </g>

  <g transform="translate(164 48)">
    <rect x="0" y="20" width="76" height="118" rx="10" fill="#29486d"/>
    <rect x="8" y="30" width="60" height="84" rx="7" fill="#f7fbff"/>
    <polyline points="18,88 28,74 37,79 48,66 58,72" fill="none" stroke="#5d9fe2" stroke-width="3"/>
    <rect x="21" y="98" width="10" height="10" rx="2" fill="#8fc4ea"/>
    <rect x="35" y="92" width="10" height="16" rx="2" fill="#73aee6"/>
    <rect x="49" y="85" width="10" height="23" rx="2" fill="#4f95dc"/>
  </g>

  <g transform="translate(250 68)">
    <rect x="0" y="34" width="92" height="68" rx="8" fill="#496f9d"/>
    <rect x="8" y="42" width="76" height="48" rx="6" fill="#f8fbff"/>
    <rect x="18" y="52" width="30" height="6" rx="3" fill="#d6e4f5"/>
    <polyline points="18,80 31,70 42,75 53,64 67,71" fill="none" stroke="#6da9e4" stroke-width="3"/>
    <rect x="22" y="110" width="26" height="24" rx="4" fill="#d2a06d"/>
    <rect x="46" y="102" width="28" height="32" rx="4" fill="#c69463"/>
    <rect x="74" y="112" width="20" height="22" rx="4" fill="#e1b47e"/>
  </g>

  <g transform="translate(314 110)">
    <rect x="0" y="20" width="42" height="36" rx="4" fill="#f3be64"/>
    <rect x="10" y="4" width="22" height="20" rx="4" fill="#2b7fd0"/>
    <rect x="13" y="1" width="16" height="6" rx="3" fill="#63a8eb"/>
  </g>
</svg>
