<svg viewBox="0 0 700 300" xmlns="http://www.w3.org/2000/svg" role="img" aria-labelledby="t d">
  <title id="t">Register hero illustration</title>
  <desc id="d">Laptop with charts, checklist and rocket for account creation.</desc>
  <defs>
    <linearGradient id="rg1" x1="0" y1="0" x2="1" y2="1">
      <stop offset="0" stop-color="#f4f9ff"/>
      <stop offset="1" stop-color="#dbe9fb"/>
    </linearGradient>
  </defs>

  <ellipse cx="350" cy="266" rx="240" ry="20" fill="#dbe6f6"/>
  <ellipse cx="370" cy="142" rx="210" ry="118" fill="url(#rg1)"/>

  <g transform="translate(166 60)">
    <polygon points="20,176 380,176 358,196 42,196" fill="#a4bbd8"/>
    <rect x="30" y="8" width="340" height="172" rx="14" fill="#36557d"/>
    <rect x="44" y="20" width="312" height="136" rx="10" fill="#f9fcff"/>
    <rect x="56" y="34" width="102" height="72" rx="8" fill="#eef5ff" stroke="#d2e1f5"/>
    <rect x="166" y="34" width="176" height="72" rx="8" fill="#f3f8ff" stroke="#d6e5f7"/>
    <polyline points="178,85 197,70 215,77 233,63 254,74 273,56 292,68 316,48" fill="none" stroke="#5d9fe2" stroke-width="3"/>
    <rect x="56" y="116" width="286" height="28" rx="6" fill="#f3f8ff" stroke="#d6e5f7"/>
    <rect x="68" y="123" width="12" height="14" rx="2" fill="#8fc4ea"/>
    <rect x="85" y="118" width="12" height="19" rx="2" fill="#73aee6"/>
    <rect x="102" y="112" width="12" height="25" rx="2" fill="#5398de"/>
    <rect x="119" y="105" width="12" height="32" rx="2" fill="#337fcf"/>
  </g>

  <g transform="translate(138 120)">
    <rect x="0" y="0" width="78" height="118" rx="8" fill="#5a86be" transform="rotate(-10 0 0)"/>
    <rect x="10" y="10" width="58" height="96" rx="6" fill="#f4f8ff" transform="rotate(-10 10 10)"/>
    <polyline points="24,31 31,39 42,24" fill="none" stroke="#4ab271" stroke-width="3"/>
    <polyline points="22,56 29,64 40,49" fill="none" stroke="#4ab271" stroke-width="3"/>
    <polyline points="20,81 27,89 38,74" fill="none" stroke="#4ab271" stroke-width="3"/>
  </g>

  <g transform="translate(488 22) rotate(20)">
    <path d="M30 0 C56 8,74 26,82 52 C56 44,37 25,30 0 Z" fill="#2d84df"/>
    <path d="M30 0 C18 26,18 50,32 70 C42 52,48 30,46 12 Z" fill="#75b6f2"/>
    <circle cx="45" cy="20" r="7" fill="#ffffff"/>
    <path d="M26 54 L8 66 L21 47 Z" fill="#f49c2c"/>
  </g>

  <g transform="translate(484 186)">
    <rect x="0" y="38" width="64" height="34" rx="4" fill="#c89663"/>
    <rect x="56" y="24" width="78" height="48" rx="4" fill="#d3a06d"/>
    <circle cx="20" cy="22" r="22" fill="#efbe66"/>
    <circle cx="20" cy="22" r="15" fill="#e4ab48"/>
  </g>
</svg>
