<svg viewBox="0 0 720 460" xmlns="http://www.w3.org/2000/svg" role="presentation" aria-hidden="true">
  <defs>
    <linearGradient id="shirt" x1="0" y1="0" x2="1" y2="1">
      <stop offset="0" stop-color="#78b4f5"/>
      <stop offset="1" stop-color="#3f82cd"/>
    </linearGradient>
    <linearGradient id="panel" x1="0" y1="0" x2="1" y2="1">
      <stop offset="0" stop-color="#f8fbff"/>
      <stop offset="1" stop-color="#eef4fd"/>
    </linearGradient>
  </defs>

  <ellipse cx="360" cy="420" rx="300" ry="20" fill="#dce6f4"/>
  <ellipse cx="500" cy="195" rx="200" ry="150" fill="#edf3fb"/>
  <ellipse cx="300" cy="220" rx="180" ry="120" fill="#eef4fb"/>

  <rect x="190" y="85" width="370" height="220" rx="12" fill="#ffffff" stroke="#d7e1ee" stroke-width="2"/>
  <rect x="190" y="85" width="370" height="34" rx="12" fill="#f6f9fe"/>
  <circle cx="212" cy="102" r="4" fill="#f1a6a6"/>
  <circle cx="226" cy="102" r="4" fill="#f1d0a6"/>
  <circle cx="240" cy="102" r="4" fill="#a6d7f1"/>

  <rect x="212" y="136" width="88" height="146" rx="8" fill="#f4f8fe" stroke="#dfe7f3"/>
  <rect x="227" y="152" width="58" height="8" rx="4" fill="#d2def0"/>
  <rect x="227" y="168" width="58" height="8" rx="4" fill="#d9e4f3"/>
  <rect x="227" y="186" width="58" height="8" rx="4" fill="#d9e4f3"/>
  <rect x="227" y="204" width="58" height="8" rx="4" fill="#d9e4f3"/>

  <rect x="318" y="136" width="225" height="94" rx="8" fill="url(#panel)" stroke="#dfe7f3"/>
  <polygon points="330,208 360,185 387,194 420,164 450,184 485,149 520,173 543,158 543,222 330,222" fill="#b5cff0"/>
  <polyline points="330,198 360,175 387,184 420,154 450,174 485,139 520,163 543,148" fill="none" stroke="#5d98df" stroke-width="3"/>

  <rect x="318" y="240" width="96" height="46" rx="8" fill="#f7fbff" stroke="#dfe7f3"/>
  <circle cx="353" cy="263" r="16" fill="#69a5e5"/>
  <circle cx="353" cy="263" r="8" fill="#ffffff"/>

  <rect x="424" y="240" width="119" height="46" rx="8" fill="#f7fbff" stroke="#dfe7f3"/>
  <rect x="438" y="254" width="48" height="7" rx="3" fill="#d4e1f2"/>
  <rect x="438" y="266" width="36" height="7" rx="3" fill="#d4e1f2"/>

  <rect x="130" y="288" width="230" height="96" rx="8" fill="#d8e4f3"/>
  <rect x="137" y="286" width="216" height="28" fill="#ffffff"/>
  <rect x="137" y="286" width="216" height="9" fill="#da5c49"/>
  <rect x="137" y="295" width="216" height="9" fill="#ffffff"/>
  <rect x="137" y="304" width="216" height="10" fill="#da5c49"/>
  <rect x="154" y="325" width="42" height="34" fill="#5a99d9"/>
  <rect x="205" y="325" width="42" height="34" fill="#4c8ccc"/>
  <rect x="257" y="325" width="42" height="34" fill="#5a99d9"/>

  <rect x="472" y="330" width="52" height="36" rx="3" fill="#cea072"/>
  <rect x="520" y="345" width="66" height="40" rx="3" fill="#c69666"/>
  <rect x="548" y="318" width="36" height="24" rx="3" fill="#ddb080"/>

  <rect x="586" y="334" width="74" height="30" rx="4" fill="#f4f8ff" stroke="#ccd9ea"/>
  <rect x="646" y="343" width="16" height="14" rx="2" fill="#5a84b6"/>
  <circle cx="602" cy="366" r="7" fill="#30496b"/>
  <circle cx="644" cy="366" r="7" fill="#30496b"/>

  <circle cx="566" cy="162" r="30" fill="#f6d1b2"/>
  <rect x="540" y="190" width="78" height="100" rx="24" fill="url(#shirt)"/>
  <rect x="546" y="222" width="66" height="66" rx="16" fill="#3f80c8"/>
  <rect x="562" y="242" width="36" height="50" rx="8" fill="#2c3f5e"/>
  <path d="M540 163 C548 140,586 136,596 156 C586 178,552 179,540 163 Z" fill="#213753"/>
  <rect x="538" y="228" width="35" height="22" rx="3" fill="#f0f5fc" stroke="#c6d5e8" transform="rotate(-18 538 228)"/>
  <line x1="553" y1="235" x2="567" y2="229" stroke="#8aa2c4" stroke-width="2"/>
  <line x1="551" y1="242" x2="565" y2="236" stroke="#8aa2c4" stroke-width="2"/>
</svg>
