<svg viewBox="0 0 320 160" xmlns="http://www.w3.org/2000/svg" role="img" aria-hidden="true">
  <rect x="10" y="12" width="300" height="136" rx="8" fill="#f6f9ff" stroke="#d6e2f1"/>
  <rect x="28" y="36" width="120" height="78" rx="6" fill="#ffffff" stroke="#dfe8f3"/>
  <rect x="34" y="46" width="52" height="6" rx="3" fill="#d2deef"/>
  <rect x="34" y="98" width="12" height="12" rx="2" fill="#96bee9"/>
  <rect x="50" y="90" width="12" height="20" rx="2" fill="#76ace6"/>
  <rect x="66" y="82" width="12" height="28" rx="2" fill="#4f93dc"/>
  <rect x="82" y="74" width="12" height="36" rx="2" fill="#387fd0"/>
  <rect x="164" y="36" width="128" height="78" rx="6" fill="#ffffff" stroke="#dfe8f3"/>
  <circle cx="228" cy="76" r="34" fill="#4e93dc"/>
  <path d="M228 76 L228 42 A34 34 0 0 1 258 94 Z" fill="#91bde9"/>
  <path d="M228 76 L258 94 A34 34 0 0 1 194 106 Z" fill="#2f7bcc"/>
</svg>
